<svg xmlns="http://www.w3.org/2000/svg" viewBox="0 0 64 64" width="64" height="64">
  <defs>
    <linearGradient id="bg" x1="0" y1="0" x2="1" y2="1">
      <stop offset="0%" stop-color="#7b87e8"/>
      <stop offset="100%" stop-color="#5a5fcf"/>
    </linearGradient>
  </defs>
  <rect width="64" height="64" rx="13" fill="url(#bg)"/>
  <g transform="translate(2,2) scale(0.995)">
    <line x1="30" y1="2"  x2="30" y2="14" stroke="white" stroke-width="2"   stroke-linecap="round"/>
    <line x1="25" y1="14" x2="35" y2="14" stroke="white" stroke-width="2.2" stroke-linecap="round"/>
    <line x1="27" y1="14" x2="20" y2="32" stroke="white" stroke-width="2.2" stroke-linecap="round"/>
    <line x1="33" y1="14" x2="40" y2="32" stroke="white" stroke-width="2.2" stroke-linecap="round"/>
    <line x1="18" y1="32" x2="42" y2="32" stroke="white" stroke-width="2.6" stroke-linecap="round"/>
    <line x1="18" y1="32" x2="11" y2="53" stroke="white" stroke-width="2.3" stroke-linecap="round"/>
    <line x1="42" y1="32" x2="49" y2="53" stroke="white" stroke-width="2.3" stroke-linecap="round"/>
    <line x1="9"  y1="53" x2="51" y2="53" stroke="white" stroke-width="2.8" stroke-linecap="round"/>
    <path d="M 11,53 C 10,60 6,68 4,78"  stroke="white" stroke-width="2.4" fill="none" stroke-linecap="round"/>
    <path d="M 49,53 C 50,60 54,68 56,78" stroke="white" stroke-width="2.4" fill="none" stroke-linecap="round"/>
    <path d="M 4,78 Q 30,62 56,78" stroke="white" stroke-width="2.2" fill="none" stroke-linecap="round"/>
    <line x1="2" y1="81" x2="58" y2="81" stroke="rgba(255,255,255,0.35)" stroke-width="1.5" stroke-linecap="round"/>
  </g>
</svg>
